<?xml version="1.0" encoding="UTF-8" standalone="no"?><svg xmlns="http://www.w3.org/2000/svg" xmlns:xlink="http://www.w3.org/1999/xlink" contentScriptType="application/ecmascript" contentStyleType="text/css" height="313px" preserveAspectRatio="none" style="width:778px;height:313px;background:#0B58A8;" version="1.1" viewBox="0 0 778 313" width="778px" zoomAndPan="magnify"><defs/><g><!--MD5=[e14190ae18e9497715bc25b3192ec46c]
class FlagSet--><rect codeLine="4" fill="#0B58A8" height="109.1875" id="FlagSet" style="stroke:#FFFFFF;stroke-width:1.5;" width="199" x="12" y="12"/><ellipse cx="82.25" cy="26" fill="#FFFFFF" rx="9" ry="9" style="stroke:#FFFFFF;stroke-width:1.0;"/><path d="M85.6563,27.9688 C84.9375,28.6406 83.6406,29.8125 81.8906,29.8125 C79.6719,29.8125 78.7031,27.875 78.7031,25.9219 C78.7031,23.5313 80.1875,22.2656 81.8281,22.2656 C83.8438,22.2656 84.0625,23.7813 84.2344,24.875 L85.6563,24.6875 C85.5625,24.1094 85.4844,23.5313 85.4844,22.5625 C85.4844,21.8906 85.5313,21.3438 85.5625,20.9219 L84.1563,20.9219 L84.0469,21.875 C83.4531,21.3438 82.8125,20.7969 81.5938,20.7969 C79.5469,20.7969 77.1406,22.625 77.1406,25.9375 C77.1406,28.875 78.9063,31.2656 81.9063,31.2656 C84.3438,31.2656 86.0469,29.6406 86.6406,29.0625 L85.6563,27.9688 Z " fill="#0B58A8"/><text fill="#FFFFFF" font-family="Verdana" font-size="14" lengthAdjust="spacing" textLength="51" x="99.75" y="30.8467">FlagSet</text><line style="stroke:#FFFFFF;stroke-width:1.5;" x1="13" x2="210" y1="40" y2="40"/><text fill="#FFFFFF" font-family="Verdana" font-size="14" lengthAdjust="spacing" textLength="103" x="18" y="56.9951">heading  string</text><text fill="#FFFFFF" font-family="Verdana" font-size="14" lengthAdjust="spacing" textLength="103" x="18" y="73.292">useage   string</text><text fill="#FFFFFF" font-family="Verdana" font-size="14" lengthAdjust="spacing" textLength="187" x="18" y="89.5889">commands []commandSeq</text><line style="stroke:#FFFFFF;stroke-width:1.5;" x1="13" x2="210" y1="96.8906" y2="96.8906"/><text fill="#FFFFFF" font-family="Verdana" font-size="14" lengthAdjust="spacing" textLength="149" x="18" y="113.8857">NewFlagSet() bitmask</text><path d="M264,23.5 L264,109.1641 L771,109.1641 L771,33.5 L761,23.5 L264,23.5 " fill="#0B58A8" style="stroke:#FFFFFF;stroke-width:1.0;"/><path d="M761,23.5 L761,33.5 L771,33.5 L761,23.5 " fill="#0B58A8" style="stroke:#FFFFFF;stroke-width:1.0;"/><text fill="#FFFFFF" font-family="Verdana" font-size="13" lengthAdjust="spacing" textLength="402" x="270" y="40.5669">The first FlagSet defined is the basic set, used to describe flags</text><text fill="#FFFFFF" font-family="Verdana" font-size="13" lengthAdjust="spacing" textLength="469" x="274" y="55.6997">for the programs cli command. Each subsequent FlagSet represent a sub</text><text fill="#FFFFFF" font-family="Verdana" font-size="13" lengthAdjust="spacing" textLength="482" x="274" y="70.8325">command; When the programs cli command is followed by a sub-command</text><text fill="#FFFFFF" font-family="Verdana" font-size="13" lengthAdjust="spacing" textLength="449" x="274" y="85.9653">the user may then access any combination of the sub-set of flags that</text><text fill="#FFFFFF" font-family="Verdana" font-size="13" lengthAdjust="spacing" textLength="421" x="274" y="101.0981">have been defined along with their accompanying documentation.</text><!--MD5=[f031d4e33d5f3458ef7f3b0d85782377]
class Flag--><rect codeLine="13" fill="#0B58A8" height="125.4844" id="Flag" style="stroke:#FFFFFF;stroke-width:1.5;" width="120" x="51.5" y="181"/><ellipse cx="93.75" cy="195" fill="#FFFFFF" rx="9" ry="9" style="stroke:#FFFFFF;stroke-width:1.0;"/><path d="M97.1563,196.9688 C96.4375,197.6406 95.1406,198.8125 93.3906,198.8125 C91.1719,198.8125 90.2031,196.875 90.2031,194.9219 C90.2031,192.5313 91.6875,191.2656 93.3281,191.2656 C95.3438,191.2656 95.5625,192.7813 95.7344,193.875 L97.1563,193.6875 C97.0625,193.1094 96.9844,192.5313 96.9844,191.5625 C96.9844,190.8906 97.0313,190.3438 97.0625,189.9219 L95.6563,189.9219 L95.5469,190.875 C94.9531,190.3438 94.3125,189.7969 93.0938,189.7969 C91.0469,189.7969 88.6406,191.625 88.6406,194.9375 C88.6406,197.875 90.4063,200.2656 93.4063,200.2656 C95.8438,200.2656 97.5469,198.6406 98.1406,198.0625 L97.1563,196.9688 Z " fill="#0B58A8"/><text fill="#FFFFFF" font-family="Verdana" font-size="14" lengthAdjust="spacing" textLength="28" x="111.25" y="199.8467">Flag</text><line style="stroke:#FFFFFF;stroke-width:1.5;" x1="52.5" x2="170.5" y1="209" y2="209"/><text fill="#FFFFFF" font-family="Verdana" font-size="14" lengthAdjust="spacing" textLength="83" x="57.5" y="225.9951">flag     string</text><text fill="#FFFFFF" font-family="Verdana" font-size="14" lengthAdjust="spacing" textLength="82" x="57.5" y="242.292">value    type</text><text fill="#FFFFFF" font-family="Verdana" font-size="14" lengthAdjust="spacing" textLength="103" x="57.5" y="258.5889">useage   string</text><text fill="#FFFFFF" font-family="Verdana" font-size="14" lengthAdjust="spacing" textLength="97" x="57.5" y="274.8857">checkFn  func</text><line style="stroke:#FFFFFF;stroke-width:1.5;" x1="52.5" x2="170.5" y1="282.1875" y2="282.1875"/><text fill="#FFFFFF" font-family="Verdana" font-size="14" lengthAdjust="spacing" textLength="108" x="57.5" y="299.1826">verify() checkFn</text><!--MD5=[7edb9fc0f67b91a0325e42a4fb73d027]
reverse link FlagSet to FlagSet--><path codeLine="21" d="M224.0038,38.2058 C237.3169,43.3763 246,52.8077 246,66.5 C246,84.2031 231.4847,94.7835 211.2143,98.2411 " fill="none" id="FlagSet-backto-FlagSet" style="stroke:#FFFFFF;stroke-width:1.0;"/><polygon fill="#FFFFFF" points="211.2143,34.7589,215.9667,40.1825,222.8009,37.8817,218.0485,32.4581,211.2143,34.7589" style="stroke:#FFFFFF;stroke-width:1.0;"/><!--MD5=[a0133c607cc4741c112c3005efcb97fd]
reverse link FlagSet to Flag--><path codeLine="22" d="M111.5,134.2166 C111.5,149.5128 111.5,165.6869 111.5,180.7675 " fill="none" id="FlagSet-backto-Flag" style="stroke:#FFFFFF;stroke-width:1.0;"/><polygon fill="#FFFFFF" points="111.5,121.0501,107.5,127.0501,111.5,133.0501,115.5,127.0501,111.5,121.0501" style="stroke:#FFFFFF;stroke-width:1.0;"/><!--MD5=[80695a72bbc3b5bd467fdecb6159e08b]
@startuml

!theme amiga

class FlagSet {
	heading  string
	useage   string
	commands []commandSeq
	NewFlagSet() bitmask
}

note "The first FlagSet defined is the basic set, used to describe flags\n for the programs cli command. Each subsequent FlagSet represent a sub\n command; When the programs cli command is followed by a sub-command\n the user may then access any combination of the sub-set of flags that\n have been defined along with their accompanying documentation." as N1

class Flag {
	flag     string
	value    type
	useage   string
	checkFn  func
	verify() checkFn
}

FlagSet *- - FlagSet
FlagSet *- - Flag

@enduml

@startuml







<style>
  root {
    BackgroundColor #0B58A8
    FontColor #FFFFFF
    FontName Verdana
    HyperLinkColor #FDA325
    LineColor #FFFFFF
    LineThickness 1
    Margin 5
  }
  caption {
    LineThickness 0
  }
  footer {
    LineThickness 0
  }
  groupHeader {
    BackgroundColor #FFFFFF
    FontColor #0B58A8
    FontStyle bold
  }
  header {
    LineThickness 0
  }
  node {
    MaximumWidth 300
  }
  referenceHeader {
    BackgroundColor #FFFFFF
    FontColor #0B58A8
    FontStyle bold
  }
  separator {
    BackgroundColor #FFFFFF
    FontColor #0B58A8
    FontStyle bold
  }
  title {
    FontSize 22
    LineThickness 0
  }
</style>

skinparam ArrowLollipopColor #FFFFFF
skinparam BackgroundColor #0B58A8
skinparam DefaultFontName Verdana
skinparam DefaultMonospacedFontName Courier
skinparam LifelineStrategy nosolid
skinparam ParticipantPadding 10
skinparam SequenceLifeLineBorderColor #FFFFFF
skinparam Shadowing false
skinparam UseBetaStyle true

skinparam Activity {
  BackgroundColor #0B58A8
  BarColor #FFFFFF
  BorderColor #FFFFFF
  FontColor #FFFFFF
  FontName Verdana
}
skinparam Boundary {
  FontColor #FFFFFF
}
skinparam Box {
  Padding 5
}
skinparam CircledCharacter {
  FontColor #0B58A8
  FontName Courier
  Radius 9
}
skinparam Class {
  BackgroundColor #0B58A8
  BorderColor #FFFFFF
  FontColor #FFFFFF
  FontName Verdana
}
skinparam ClassAttribute {
  FontColor #FFFFFF
  FontName Verdana
}
skinparam ClassStereotype {
  FontColor #FFFFFF
  FontName Verdana
}
skinparam Footer {
  FontColor #FFFFFF
  FontName Verdana
}
skinparam Header {
  FontColor #FFFFFF
  FontName Verdana
}
skinparam Hyperlink {
  Color #FDA325
}
skinparam IconPackage {
  Color #FFFFFF
  BackgroundColor #0B58A8
}
skinparam IconPrivate {
  Color #FFFFFF
  BackgroundColor #0B58A8
}
skinparam IconProtected {
  Color #FFFFFF
  BackgroundColor #0B58A8
}
skinparam IconPublic {
  Color #FFFFFF
  BackgroundColor #0B58A8
}
skinparam Note {
  FontColor #FFFFFF
  FontName Verdana
}
skinparam Package {
  BorderColor #FFFFFF
  FontColor #FFFFFF
  FontName Verdana
}
skinparam State {
  BackgroundColor #0B58A8
  BorderColor #FFFFFF
}
skinparam StereotypeA {
  BackgroundColor #FFFFFF
  BorderColor #FFFFFF
}
skinparam StereotypeC {
  BackgroundColor #FFFFFF
  BorderColor #FFFFFF
}
skinparam StereotypeE {
  BackgroundColor #FFFFFF
  BorderColor #FFFFFF
}
skinparam StereotypeI {
  BackgroundColor #FFFFFF
  BorderColor #FFFFFF
}
skinparam StereotypeN {
  BackgroundColor #FFFFFF
  BorderColor #FFFFFF
}
skinparam UseCaseStereoType {
  FontColor #FFFFFF
  FontName Verdana
}

class FlagSet {
	heading  string
	useage   string
	commands []commandSeq
	NewFlagSet() bitmask
}

note "The first FlagSet defined is the basic set, used to describe flags\n for the programs cli command. Each subsequent FlagSet represent a sub\n command; When the programs cli command is followed by a sub-command\n the user may then access any combination of the sub-set of flags that\n have been defined along with their accompanying documentation." as N1

class Flag {
	flag     string
	value    type
	useage   string
	checkFn  func
	verify() checkFn
}

FlagSet *- - FlagSet
FlagSet *- - Flag

@enduml

PlantUML version 1.2021.7(Sun May 23 14:40:07 CEST 2021)
(GPL source distribution)
Java Runtime: OpenJDK Runtime Environment
JVM: OpenJDK 64-Bit Server VM
Default Encoding: UTF-8
Language: en
Country: GB
--></g></svg>